<?xml version="1.0" encoding="UTF-8"?>
<svg id="Layer_1" data-name="Layer 1" xmlns="http://www.w3.org/2000/svg" viewBox="0 0 1279.64 1279.52">
  <defs>
    <style>
      .cls-1 {
        fill: #fff;
      }
    </style>
  </defs>
  <path class="cls-1" d="M.07,895.93v383.59H383.42v-89.21H88.97v-294.38H.07Zm1190.25,294.48h-294.23v89.01h383.28v-383.31h-89.05v294.3ZM0,0V383.28H89.13V88.71H383.43V0H0ZM1279.64,.11h-383.44V89.15h294.37V383.22h89.06V.11Zm-327.94,804.47c-.76-2.3-1.25-3.87-1.8-5.41-9.4-26.49-18.79-52.99-28.2-79.47-33.07-93.1-66.17-186.2-99.15-279.33-1.25-3.53-2.85-4.8-6.7-4.72-13.16,.28-26.34,.35-39.49-.03-4.52-.13-6.23,1.45-7.66,5.5-40.17,113.35-80.48,226.65-120.76,339.97-2.72,7.64-5.37,15.3-8.25,23.5,12.43,0,24.23-.16,36.01,.09,3.65,.08,5.11-1.18,6.27-4.56,11.15-32.4,22.63-64.68,33.64-97.13,1.62-4.78,3.91-5.84,8.52-5.83,45.5,.15,91,.04,136.5,.13,11.45,.02,8.5-1.79,12.21,8.74,11.05,31.38,21.94,62.81,32.9,94.22,.74,2.11,.92,4.45,4.31,4.41,13.66-.16,27.31-.07,41.65-.07Zm-470.27-.27V474.43h122.92v-38.4H314.16v38.56h123.12v329.73h44.15Zm139.31,192.24c0-11.53-.21-22.51,.1-33.47,.13-4.59,.75-9.35,2.24-13.66,3-8.67,13.35-13.89,23.26-12.46,9.14,1.32,15.01,7.28,15.54,17.33,.64,12.12,.4,24.29,.54,36.44,.02,1.91,0,3.82,0,5.74h9.53c0-10.89-.23-21.51,.1-32.12,.16-4.92,.77-10.02,2.32-14.66,2.94-8.78,12.42-13.81,22.53-12.81,9.18,.91,14.81,6.53,16.26,16.67,.52,3.6,.45,7.3,.47,10.96,.06,10.6,.02,21.21,.02,31.9h9.31c.11-1.15,.27-1.97,.27-2.79-.03-12.99,.09-25.98-.18-38.96-.41-19.91-13.61-28.05-32.01-26.4-9.21,.83-16.39,5.43-21.87,12.87-11.89-16.71-29.97-17.77-48.57-2.91-.23-3.28-.44-6.29-.64-9.19h-8.66v67.52h9.44Zm-114.37-.01c1.81,.09,2.98,.04,4.12,.23,4.59,.75,7.26-.9,8.82-5.51,1.75-5.18,4.45-10.02,6.55-15.09,1.01-2.43,2.28-3.55,5.14-3.52,14.32,.16,28.64-.03,42.95,.21,1.59,.03,3.85,1.62,4.6,3.1,2.95,5.76,5.34,11.81,8.15,17.65,.61,1.26,1.97,2.78,3.19,2.99,2.65,.45,5.44,.14,8.59,.14-.49-1.52-.66-2.33-1-3.06-12.85-28.12-25.81-56.19-38.48-84.39-1.73-3.85-4.41-3.09-7.28-3.36-3.09-.29-4.72,.85-6.03,3.75-12.47,27.56-25.09,55.05-37.66,82.57-.54,1.18-.94,2.42-1.66,4.28Zm303.45,0c0-16.17,.67-31.98-.25-47.69-.55-9.42-6.54-16.28-16.02-19.03-13.18-3.81-25.29-2.17-36.12,8.95v-37.7h-9.29v95.44h9.37c0-2.03,0-3.81,0-5.6,0-9.16-.23-18.34,.1-27.49,.17-4.58,.75-9.35,2.25-13.64,3.22-9.2,14.51-14.61,25.12-12.71,9.91,1.78,15.45,8.52,15.76,19.44,.17,5.99,.08,12,.09,17.99,.01,7.28,0,14.55,0,22.03h8.99Zm83.85-30.86c1.18-13.99-3.61-25.52-13.51-32.04-10.87-7.16-22.53-7.7-34.18-2.24-14.78,6.93-21.72,24.44-16.99,41.69,4.2,15.31,19.12,25.29,35.91,24.17,9.74-.65,18.47-3.28,25.04-11.45-1.92-2.15-3.66-4.1-5.41-6.06-10.25,9.49-21.63,11.76-33.82,5.81-7.75-3.78-12.65-10.26-13.11-19.88h56.07Zm166.15,14.02c-10.38,9.61-21.68,11.62-33.97,5.88-7.71-3.6-14.23-13.48-12.35-20.07h55.71c.54-13.03-2.7-24.06-13.35-31.52-10.82-7.59-22.72-8.13-34.57-2.6-14.68,6.84-21.67,24.1-17.19,41.17,4.11,15.67,19.02,25.85,36,24.71,9.73-.65,18.51-3.18,25.06-11.48-1.8-2.05-3.42-3.9-5.33-6.08Zm-599.1,17.06c0-10.29,.11-19.92-.04-29.55-.1-6.81-.14-13.67-.93-20.42-.85-7.22-4.94-12.61-11.59-15.8-12.38-5.94-32.39-2.93-42.97,6.6,1.31,2.17,2.65,4.4,3.69,6.12,5.78-2.29,10.97-5.07,16.51-6.4,16.47-3.96,27.22,4.89,24.9,20.55-4.04,0-8.16-.1-12.28,.02-5.81,.18-11.67,.16-17.42,.91-6.5,.84-12.18,3.65-15.21,9.95-6.2,12.89,2.11,26.4,17.03,28.11,10.64,1.22,20.49-.03,28.69-9.08,.26,3.6,.44,6.14,.65,8.97,1.56,0,2.71,0,3.85,0,1.48,0,2.96,0,5.13,0Zm476.46-7.58c15.24,8.92,30.49,10.95,46.34,4.4,7.19-2.97,10.62-9.65,10.09-16.83-.57-7.79-4.75-12.64-12.12-14.63-7.69-2.07-15.54-3.6-23.21-5.77-4.44-1.25-8.42-3.53-8.52-9.09-.08-4.48,3.03-8.02,8.58-9.67,1.58-.47,3.24-.74,4.88-.9,8.5-.83,16.46,1.01,24.03,5.6,1.49-2.87,2.75-5.29,4.19-8.05-13.14-6.73-26.17-8.47-39.53-3.45-9.41,3.53-13.57,12.05-11.2,21.77,2.15,8.84,9.54,11.31,17.16,13.14,5.97,1.43,12.07,2.38,18.01,3.92,4.43,1.15,8.09,3.58,7.84,8.92-.25,5.3-3.78,8.56-8.5,9-6.51,.6-13.24,.54-19.69-.46-4.73-.74-9.15-3.45-14.05-5.41-1.28,2.24-2.58,4.5-4.31,7.52Zm-730.49-82.86h-72.82v8.66h31.39v81.42h10.12v-81.67h31.31v-8.41Zm144.51,72.44c-12.59,12.05-26.16,13.12-37.18,3.26-9.92-8.88-10.84-25.74-1.87-36.73,3.82-4.69,8.85-7.59,14.86-8.39,9.79-1.31,17.93,1.95,24.07,9.82,2.58-1.79,4.73-3.27,6.82-4.72-5.72-11.32-20.55-16.54-36.03-13.02-15.35,3.49-25.4,16.45-25.73,33.18-.33,16.66,9.53,29.93,25.29,34.05,15.16,3.96,29.97-1.18,36.4-12.9-2.14-1.46-4.31-2.94-6.65-4.54Zm-124.39-38.97v-10.76h-8.71v67.51h9.39c0-2,0-3.78,0-5.56,.07-10.66-.12-21.33,.27-31.98,.46-12.84,7.72-20.24,20.38-21.51,1.26-.13,2.5-.44,3.68-.66v-8.52c-10.16-.55-16.79,2.36-25.02,11.48Zm870.69,56.76c0-2.17-.01-3.96,0-5.75,.07-10.83-.13-21.66,.31-32.48,.49-12.17,7.93-19.58,20.03-20.79,1.3-.13,2.59-.36,3.92-.55v-8.98c-10,.09-18.25,3.01-25.11,10.48v-9.57h-8.66v67.63h9.5Zm-828.58-67.61v67.57h8.89v-67.57h-8.89Zm114.85,67.7v-67.57h-8.81v67.57h8.81Zm529.16-67.71v67.57h8.86v-67.57h-8.86Zm-639.56-14.84c4.1,.02,7.07-2.76,6.89-6.76-.18-4.07-2.45-6.37-6.58-6.56-4.14-.2-7.06,2.51-7.12,6.49-.06,4.04,2.7,6.81,6.81,6.83Zm112.9-6.57c.09-3.95-2.8-6.87-6.89-6.75-4.01,.12-6.56,2.07-6.79,6.3-.22,4.07,2.5,6.9,6.59,7.01,4.15,.11,7-2.53,7.09-6.57Zm538,.02c.1-3.95-2.78-6.88-6.87-6.77-4.01,.11-6.57,2.05-6.81,6.28-.23,4.07,2.47,6.91,6.57,7.03,4.15,.12,7.01-2.51,7.11-6.54Z"/>
  <path d="M.07,895.93H88.97v294.38H383.42v89.21H.07v-383.59Z"/>
  <path d="M1190.32,1190.41v-294.3h89.05v383.31h-383.28v-89.01h294.23Z"/>
  <path d="M0,0H383.43V88.71H89.13V383.28H0V0Z"/>
  <path d="M1279.64,.11V383.22h-89.06V89.15h-294.37V.11h383.44Z"/>
  <path d="M951.7,804.59c-14.34,0-28-.1-41.65,.07-3.39,.04-3.58-2.3-4.31-4.41-10.96-31.41-21.85-62.84-32.9-94.22-3.71-10.52-.76-8.71-12.21-8.74-45.5-.08-91,.03-136.5-.13-4.61-.02-6.89,1.04-8.52,5.83-11.01,32.44-22.49,64.73-33.64,97.13-1.16,3.38-2.62,4.64-6.27,4.56-11.79-.25-23.58-.09-36.01-.09,2.88-8.2,5.53-15.86,8.25-23.5,40.28-113.31,80.59-226.62,120.76-339.97,1.44-4.05,3.14-5.63,7.66-5.5,13.16,.37,26.33,.31,39.49,.03,3.85-.08,5.45,1.19,6.7,4.72,32.98,93.13,66.08,186.23,99.15,279.33,9.41,26.49,18.8,52.98,28.2,79.47,.55,1.55,1.04,3.11,1.8,5.41Zm-220.62-146.31h125.16c-20.76-59.67-41.35-118.84-61.93-178-.37,.07-.75,.13-1.12,.2-20.65,59.11-41.3,118.23-62.11,177.8Z"/>
  <path d="M481.43,804.32h-44.15V474.59h-123.12v-38.56h290.19v38.4h-122.92v329.89Z"/>
  <path d="M620.74,996.56h-9.44v-67.52h8.66c.2,2.9,.41,5.91,.64,9.19,18.6-14.86,36.68-13.8,48.57,2.91,5.48-7.45,12.66-12.04,21.87-12.87,18.4-1.65,31.6,6.49,32.01,26.4,.27,12.98,.14,25.97,.18,38.96,0,.82-.15,1.64-.27,2.79h-9.31c0-10.69,.04-21.3-.02-31.9-.02-3.66,.05-7.36-.47-10.96-1.45-10.14-7.08-15.76-16.26-16.67-10.11-1-19.59,4.03-22.53,12.81-1.55,4.64-2.17,9.74-2.32,14.66-.34,10.61-.1,21.23-.1,32.12h-9.53c0-1.92,.02-3.83,0-5.74-.14-12.15,.1-24.32-.54-36.44-.53-10.04-6.41-16.01-15.54-17.33-9.91-1.43-20.26,3.79-23.26,12.46-1.49,4.31-2.11,9.08-2.24,13.66-.31,10.96-.1,21.94-.1,33.47Z"/>
  <path d="M506.36,996.55c.72-1.87,1.12-3.11,1.66-4.28,12.57-27.52,25.19-55.01,37.66-82.57,1.31-2.9,2.94-4.04,6.03-3.75,2.87,.27,5.55-.49,7.28,3.36,12.67,28.2,25.62,56.27,38.48,84.39,.33,.73,.51,1.54,1,3.06-3.15,0-5.94,.31-8.59-.14-1.22-.21-2.58-1.73-3.19-2.99-2.81-5.84-5.2-11.89-8.15-17.65-.76-1.48-3.01-3.07-4.6-3.1-14.31-.24-28.64-.05-42.95-.21-2.85-.03-4.13,1.08-5.14,3.52-2.09,5.07-4.8,9.91-6.55,15.09-1.56,4.62-4.23,6.26-8.82,5.51-1.13-.19-2.31-.14-4.12-.23Zm67.06-32.31c-7.15-15.97-13.93-31.13-21.1-47.13-7.22,16.18-14,31.39-21.03,47.13h42.12Z"/>
  <path d="M809.81,996.54h-8.99c0-7.48,0-14.75,0-22.03,0-6,.07-12-.09-17.99-.31-10.92-5.84-17.66-15.76-19.44-10.61-1.91-21.9,3.5-25.12,12.71-1.5,4.3-2.08,9.06-2.25,13.64-.34,9.15-.1,18.33-.1,27.49,0,1.79,0,3.57,0,5.6h-9.37v-95.44h9.29v37.7c10.83-11.12,22.94-12.76,36.12-8.95,9.48,2.74,15.47,9.61,16.02,19.03,.92,15.71,.25,31.52,.25,47.69Z"/>
  <path d="M893.67,965.68h-56.07c.46,9.62,5.36,16.1,13.11,19.88,12.2,5.95,23.57,3.68,33.82-5.81,1.75,1.96,3.49,3.91,5.41,6.06-6.57,8.17-15.31,10.8-25.04,11.45-16.78,1.12-31.7-8.86-35.91-24.17-4.74-17.25,2.2-34.76,16.99-41.69,11.65-5.46,23.31-4.92,34.18,2.24,9.89,6.52,14.68,18.05,13.51,32.04Zm-55.62-7.82h46.32c-1.81-13.8-11.92-21.89-25.31-21.35-10.5,.43-21.37,10.39-21.01,21.35Z"/>
  <path d="M1059.81,979.7c1.91,2.18,3.53,4.03,5.33,6.08-6.56,8.3-15.33,10.83-25.06,11.48-16.98,1.13-31.89-9.04-36-24.71-4.48-17.08,2.51-34.33,17.19-41.17,11.85-5.53,23.75-4.98,34.57,2.6,10.65,7.46,13.89,18.49,13.35,31.52h-55.71c-1.88,6.6,4.64,16.47,12.35,20.07,12.29,5.74,23.59,3.73,33.97-5.88Zm-.54-21.58c.45-11.14-10.02-21.29-22.18-21.61-12.98-.35-23.83,9.33-23.9,21.61h46.08Z"/>
  <path d="M460.72,996.75c-2.17,0-3.65,0-5.13,0-1.14,0-2.29,0-3.85,0-.2-2.84-.39-5.38-.65-8.97-8.19,9.05-18.04,10.3-28.69,9.08-14.93-1.71-23.23-15.22-17.03-28.11,3.03-6.3,8.71-9.11,15.21-9.95,5.75-.75,11.61-.73,17.42-.91,4.12-.13,8.25-.02,12.28-.02,2.32-15.66-8.43-24.52-24.9-20.55-5.54,1.33-10.73,4.11-16.51,6.4-1.03-1.72-2.38-3.95-3.69-6.12,10.58-9.53,30.59-12.54,42.97-6.6,6.65,3.19,10.74,8.58,11.59,15.8,.79,6.75,.83,13.6,.93,20.42,.14,9.63,.04,19.26,.04,29.55Zm-10.33-30.96c-8.92,0-17.56-.32-26.16,.11-6.21,.31-10.28,4.31-11.19,9.6-.8,4.62,1.7,9.63,6.49,11.83,7.95,3.65,15.92,3.21,23.29-1.5,7.23-4.63,9.53-11.49,7.58-20.04Z"/>
  <path d="M937.18,989.17c1.73-3.02,3.03-5.28,4.31-7.52,4.9,1.97,9.32,4.68,14.05,5.41,6.45,1,13.18,1.07,19.69,.46,4.72-.44,8.24-3.71,8.5-9,.26-5.34-3.41-7.77-7.84-8.92-5.94-1.54-12.04-2.49-18.01-3.92-7.62-1.83-15.01-4.3-17.16-13.14-2.37-9.72,1.79-18.24,11.2-21.77,13.36-5.02,26.39-3.28,39.53,3.45-1.44,2.76-2.7,5.18-4.19,8.05-7.57-4.6-15.53-6.43-24.03-5.6-1.64,.16-3.3,.43-4.88,.9-5.54,1.66-8.66,5.2-8.58,9.67,.1,5.56,4.08,7.84,8.52,9.09,7.67,2.16,15.51,3.69,23.21,5.77,7.37,1.98,11.55,6.84,12.12,14.63,.53,7.19-2.9,13.86-10.09,16.83-15.85,6.55-31.1,4.52-46.34-4.4Z"/>
  <path d="M206.69,906.31v8.41h-31.31v81.67h-10.12v-81.42h-31.39v-8.66h72.82Z"/>
  <path d="M351.2,978.75c2.34,1.59,4.51,3.08,6.65,4.54-6.43,11.72-21.24,16.86-36.4,12.9-15.76-4.12-25.62-17.39-25.29-34.05,.33-16.74,10.38-29.7,25.73-33.18,15.48-3.52,30.3,1.7,36.03,13.02-2.09,1.45-4.24,2.94-6.82,4.72-6.15-7.87-14.28-11.13-24.07-9.82-6.01,.81-11.04,3.71-14.86,8.39-8.97,11-8.05,27.85,1.87,36.73,11.02,9.86,24.59,8.79,37.18-3.26Z"/>
  <path d="M226.81,939.78c8.23-9.12,14.86-12.02,25.02-11.48v8.52c-1.18,.22-2.42,.54-3.68,.66-12.66,1.27-19.92,8.66-20.38,21.51-.38,10.65-.2,21.32-.27,31.98-.01,1.78,0,3.56,0,5.56h-9.39v-67.51h8.71v10.76Z"/>
  <path d="M1097.5,996.54h-9.5v-67.63h8.66v9.57c6.86-7.48,15.1-10.39,25.11-10.48v8.98c-1.34,.19-2.62,.42-3.92,.55-12.1,1.21-19.54,8.62-20.03,20.79-.44,10.81-.23,21.65-.31,32.48-.01,1.79,0,3.59,0,5.75Z"/>
  <path d="M268.93,928.92h8.89v67.57h-8.89v-67.57Z"/>
  <path d="M383.78,996.62h-8.81v-67.57h8.81v67.57Z"/>
  <path d="M912.94,928.91h8.86v67.57h-8.86v-67.57Z"/>
  <path d="M273.38,914.07c-4.11-.02-6.87-2.79-6.81-6.83,.06-3.98,2.98-6.69,7.12-6.49,4.13,.2,6.4,2.49,6.58,6.56,.18,4-2.79,6.78-6.89,6.76Z"/>
  <path d="M386.28,907.5c-.09,4.04-2.94,6.68-7.09,6.57-4.09-.11-6.81-2.94-6.59-7.01,.23-4.23,2.78-6.18,6.79-6.3,4.1-.12,6.98,2.8,6.89,6.75Z"/>
  <path d="M924.28,907.52c-.11,4.04-2.96,6.66-7.11,6.54-4.09-.12-6.8-2.96-6.57-7.03,.24-4.24,2.8-6.17,6.81-6.28,4.09-.11,6.97,2.82,6.87,6.77Z"/>
  <path class="cls-1" d="M731.09,658.27c20.81-59.58,41.46-118.69,62.11-177.8,.37-.07,.75-.13,1.12-.2,20.58,59.16,41.17,118.33,61.93,178h-125.16Z"/>
  <path class="cls-1" d="M573.42,964.24h-42.12c7.02-15.74,13.81-30.94,21.03-47.13,7.16,16,13.95,31.15,21.1,47.13Z"/>
  <path class="cls-1" d="M838.05,957.86c-.36-10.95,10.5-20.92,21.01-21.35,13.39-.54,23.5,7.54,25.31,21.35h-46.32Z"/>
  <path class="cls-1" d="M1059.27,958.12h-46.08c.07-12.28,10.93-21.96,23.9-21.61,12.15,.32,22.63,10.47,22.18,21.61Z"/>
  <path class="cls-1" d="M450.39,965.8c1.94,8.55-.35,15.41-7.58,20.04-7.36,4.71-15.34,5.15-23.29,1.5-4.78-2.2-7.29-7.21-6.49-11.83,.92-5.29,4.99-9.29,11.19-9.6,8.6-.43,17.24-.11,26.16-.11Z"/>
</svg>